<?xml version="1.0" standalone="no"?><!DOCTYPE svg PUBLIC "-//W3C//DTD SVG 1.1//EN" "http://www.w3.org/Graphics/SVG/1.1/DTD/svg11.dtd"><svg t="1574071410256" class="icon" viewBox="0 0 1024 1024" version="1.1" xmlns="http://www.w3.org/2000/svg" p-id="4389" xmlns:xlink="http://www.w3.org/1999/xlink" width="120" height="120"><defs><style type="text/css"></style></defs><path d="M580.608 936.96c24.064-35.84 48.128-72.192 72.192-108.032 9.728-15.872 5.12-32.256-9.728-49.152l-120.832-117.76c-19.456-15.872-35.84-17.92-49.664-9.216-25.6 15.872-48.128 31.744-73.728 47.104-84.992-130.048-100.864-196.608-118.784-289.792 26.112-14.848 52.224-30.208 78.336-45.056 13.824-8.704 20.48-23.552 15.36-48.128-15.36-54.272-30.72-108.032-46.08-162.304-7.68-20.992-19.456-32.768-38.4-31.744-43.008 4.096-86.016 7.68-129.536 11.776-38.4 2.56-45.056 16.384-45.056 44.032 17.92 327.68 140.288 629.76 404.992 777.216 25.6 12.8 40.448 13.312 60.928-18.944z m-40.448-360.96H414.72l4.096-33.28 74.752-112.64c8.192-12.288 13.312-29.184 15.872-50.176 1.536-11.264-1.536-16.896-9.216-16.896s-11.776 3.584-12.8 10.24l-5.12 42.496h-49.152l5.12-43.52c3.584-32.256 26.112-48.128 67.584-48.128 25.6 0 41.472 5.632 48.64 17.92 6.656 11.776 8.704 31.232 5.632 57.856-1.024 10.752-4.096 19.456-8.704 26.112l-75.264 117.76h67.072l-3.072 32.256z m163.84-31.744h-27.136l-3.584 32.256H619.52l3.584-32.256h-74.24l4.096-35.328 75.264-182.272h73.728L680.96 506.88h27.136l-4.096 37.376z m-76.288-37.888h-24.576l36.352-98.304-11.776 98.304z m-107.52-421.376c105.472 0 200.704 42.496 269.824 111.616s111.616 164.352 111.616 269.824-42.496 200.704-111.616 269.824c-20.48 20.48-43.008 38.4-67.584 53.76-1.536-8.704-6.144-17.92-14.336-27.136l-40.96-39.936c23.04-13.312 43.52-29.184 62.464-47.616 53.248-53.248 86.528-127.488 86.528-208.896 0-81.408-33.28-155.648-86.528-208.896-53.248-53.248-127.488-86.528-208.896-86.528-39.424 0-77.312 7.68-111.616 22.016l-15.872-55.808c-3.584-10.752-8.704-18.944-15.36-24.576 43.52-17.408 91.648-27.648 142.336-27.648z" p-id="4390"></path></svg>